<svg width="77" height="16" viewBox="0 0 77 16" fill="none" xmlns="http://www.w3.org/2000/svg">
<path d="M2.20211e-05 13.7602C2.20211e-05 14.1641 0.269244 14.4333 0.673077 14.4333H15.7346C16.2057 14.4333 16.5796 14.0818 16.5796 13.6032C16.5796 13.1171 16.2057 12.7656 15.7346 12.7656H1.86962C1.72753 12.7656 1.6677 12.7133 1.6677 12.5637V8.48797L4.70393 6.73055C4.96567 6.96238 5.30968 7.10447 5.69108 7.10447C6.00517 7.10447 6.3043 6.99977 6.54361 6.83525L7.94207 8.00936C7.8972 8.15145 7.87477 8.30101 7.87477 8.45806C7.87477 9.28068 8.54782 9.95374 9.37044 9.95374C10.2005 9.95374 10.8736 9.28068 10.8736 8.45806C10.8736 8.39823 10.8661 8.33841 10.8661 8.27858L14.1865 6.28933C14.4258 6.43142 14.7025 6.52116 14.9942 6.52116C15.8243 6.52116 16.4973 5.8481 16.4973 5.018C16.4973 4.19538 15.8243 3.52232 14.9942 3.52232C14.1716 3.52232 13.4985 4.19538 13.4985 5.018C13.4985 5.10774 13.506 5.19 13.5209 5.27227L10.2454 7.23908C9.99863 7.0596 9.69949 6.9549 9.37044 6.9549C9.13113 6.9549 8.90678 7.00725 8.71235 7.11195L7.1718 5.81819C7.18675 5.75088 7.19423 5.6761 7.19423 5.60132C7.19423 4.77121 6.52118 4.09816 5.69108 4.09816C4.86097 4.09816 4.18792 4.77121 4.18792 5.60132V5.63123L1.6677 7.08952V0.84506C1.6677 0.373922 1.31622 2.50153e-06 0.837602 2.50153e-06C0.351506 2.50153e-06 2.20211e-05 0.373922 2.20211e-05 0.84506V13.7602ZM22.3731 12.6086H24.3923L25.2897 9.81913H29.2831L30.188 12.6086H32.2072L28.3782 1.81725H26.202L22.3731 12.6086ZM27.2266 3.82146H27.3537L28.8045 8.33093H25.7758L27.2266 3.82146ZM36.5585 12.7731C38.63 12.7731 39.834 11.6588 40.1032 9.98365L40.1182 9.92382L38.3607 9.9313L38.3458 9.96122C38.114 10.8212 37.5232 11.2625 36.5585 11.2625C35.2946 11.2625 34.5393 10.2454 34.5393 8.51041V8.49545C34.5393 6.7829 35.2871 5.7808 36.5585 5.7808C37.5755 5.7808 38.1813 6.34915 38.3533 7.14186L38.3607 7.1643H40.1182V7.13439C39.9088 5.44427 38.6524 4.27764 36.551 4.27764C34.0906 4.27764 32.6473 5.85558 32.6473 8.49545V8.51041C32.6473 11.1802 34.0981 12.7731 36.5585 12.7731ZM44.8434 12.646C45.2023 12.646 45.5463 12.616 45.8156 12.5637V11.1278C45.5912 11.1503 45.4491 11.1578 45.1874 11.1578C44.4096 11.1578 44.0881 10.8138 44.0881 9.99861V5.87802H45.8156V4.43469H44.0881V2.43048H42.196V4.43469H40.9247V5.87802H42.196V10.4398C42.196 12.0178 42.9663 12.646 44.8434 12.646ZM48.2599 3.06614C48.8656 3.06614 49.3667 2.58005 49.3667 1.96682C49.3667 1.36107 48.8656 0.867496 48.2599 0.867496C47.6466 0.867496 47.1456 1.36107 47.1456 1.96682C47.1456 2.58005 47.6466 3.06614 48.2599 3.06614ZM47.3251 12.6086H49.1872V4.43469H47.3251V12.6086ZM53.3066 12.6086H55.3482L58.2424 4.43469H56.283L54.406 10.7913H54.2788L52.3868 4.43469H50.3975L53.3066 12.6086ZM60.4025 3.06614C61.0082 3.06614 61.5093 2.58005 61.5093 1.96682C61.5093 1.36107 61.0082 0.867496 60.4025 0.867496C59.7893 0.867496 59.2882 1.36107 59.2882 1.96682C59.2882 2.58005 59.7893 3.06614 60.4025 3.06614ZM59.4677 12.6086H61.3298V4.43469H59.4677V12.6086ZM66.4663 12.646C66.8253 12.646 67.1693 12.616 67.4385 12.5637V11.1278C67.2142 11.1503 67.0721 11.1578 66.8103 11.1578C66.0326 11.1578 65.711 10.8138 65.711 9.99861V5.87802H67.4385V4.43469H65.711V2.43048H63.819V4.43469H62.5477V5.87802H63.819V10.4398C63.819 12.0178 64.5893 12.646 66.4663 12.646ZM69.8006 15.4803C71.6103 15.4803 72.5451 14.8296 73.2481 12.7806L76.1796 4.43469H74.2203L72.3208 10.8212H72.1787L70.2717 4.43469H68.2376L71.1616 12.616L71.0644 12.99C70.8625 13.7303 70.4063 14.0444 69.6435 14.0444C69.4491 14.0444 69.2397 14.0369 69.0901 14.022V15.4504C69.3145 15.4728 69.5762 15.4803 69.8006 15.4803Z" fill="#EBEBF5" fill-opacity="0.3"/>
</svg>
