<svg width="115" height="14" viewBox="0 0 115 14" fill="none" xmlns="http://www.w3.org/2000/svg">
<path d="M1.2603 5.5296H4.26925C5.10727 5.5296 5.52958 5.10729 5.52958 4.23628V1.28672C5.52958 0.415705 5.10727 -5.42589e-06 4.26925 -5.42589e-06H1.2603C0.42228 -5.42589e-06 -2.91932e-05 0.415705 -2.91932e-05 1.28672V4.23628C-2.91932e-05 5.10729 0.42228 5.5296 1.2603 5.5296ZM7.88527 5.5296H10.8876C11.7256 5.5296 12.148 5.10729 12.148 4.23628V1.28672C12.148 0.415705 11.7256 -5.42589e-06 10.8876 -5.42589e-06H7.88527C7.04065 -5.42589e-06 6.61835 0.415705 6.61835 1.28672V4.23628C6.61835 5.10729 7.04065 5.5296 7.88527 5.5296ZM1.2735 4.5992C1.04255 4.5992 0.93037 4.48043 0.93037 4.23628V1.28672C0.93037 1.04917 1.04255 0.930394 1.2735 0.930394H4.24946C4.48041 0.930394 4.59918 1.04917 4.59918 1.28672V4.23628C4.59918 4.48043 4.48041 4.5992 4.24946 4.5992H1.2735ZM7.89847 4.5992C7.66092 4.5992 7.54874 4.48043 7.54874 4.23628V1.28672C7.54874 1.04917 7.66092 0.930394 7.89847 0.930394H10.8744C11.1054 0.930394 11.2176 1.04917 11.2176 1.28672V4.23628C11.2176 4.48043 11.1054 4.5992 10.8744 4.5992H7.89847ZM1.2603 12.148H4.26925C5.10727 12.148 5.52958 11.7323 5.52958 10.8613V7.90509C5.52958 7.04068 5.10727 6.61837 4.26925 6.61837H1.2603C0.42228 6.61837 -2.91932e-05 7.04068 -2.91932e-05 7.90509V10.8613C-2.91932e-05 11.7323 0.42228 12.148 1.2603 12.148ZM7.88527 12.148H10.8876C11.7256 12.148 12.148 11.7323 12.148 10.8613V7.90509C12.148 7.04068 11.7256 6.61837 10.8876 6.61837H7.88527C7.04065 6.61837 6.61835 7.04068 6.61835 7.90509V10.8613C6.61835 11.7323 7.04065 12.148 7.88527 12.148ZM1.2735 11.2176C1.04255 11.2176 0.93037 11.0988 0.93037 10.8613V7.91169C0.93037 7.66754 1.04255 7.54877 1.2735 7.54877H4.24946C4.48041 7.54877 4.59918 7.66754 4.59918 7.91169V10.8613C4.59918 11.0988 4.48041 11.2176 4.24946 11.2176H1.2735ZM7.89847 11.2176C7.66092 11.2176 7.54874 11.0988 7.54874 10.8613V7.91169C7.54874 7.66754 7.66092 7.54877 7.89847 7.54877H10.8744C11.1054 7.54877 11.2176 7.66754 11.2176 7.91169V10.8613C11.2176 11.0988 11.1054 11.2176 10.8744 11.2176H7.89847ZM110.494 10.0444C110.693 10.0444 110.862 9.96693 111.017 9.80724L114.656 6.08608C114.782 5.96027 114.844 5.81026 114.844 5.63122C114.844 5.2683 114.554 4.97312 114.191 4.97312C114.017 4.97312 113.848 5.05055 113.717 5.1812L110.499 8.49105L107.272 5.1812C107.141 5.05055 106.976 4.97312 106.792 4.97312C106.434 4.97312 106.144 5.2683 106.144 5.63122C106.144 5.81026 106.212 5.96027 106.333 6.08608L109.972 9.81208C110.131 9.96693 110.296 10.0444 110.494 10.0444Z" fill="#EBEBF5" fill-opacity="0.6"/>
<path d="M17.8421 10.8283H19.0893L20.0461 8.10305H23.8337L24.7904 10.8283H26.0376L22.5271 1.30651H21.3526L17.8421 10.8283ZM21.8871 2.84398H21.9926L23.4839 7.09347H20.3958L21.8871 2.84398ZM27.4116 10.8283H28.5598V0.890803H27.4116V10.8283ZM30.6135 10.8283H31.7616V0.890803H30.6135V10.8283ZM40.2438 10.9536C41.9529 10.9536 42.9097 10.0364 43.2 8.74971L43.2132 8.67713L42.0782 8.68372L42.065 8.72332C41.8011 9.51515 41.194 9.93745 40.2372 9.93745C38.9703 9.93745 38.1521 8.88828 38.1521 7.25183V7.23864C38.1521 5.63518 38.9571 4.6058 40.2372 4.6058C41.26 4.6058 41.8935 5.17328 42.0716 5.87273L42.0782 5.89253H43.2198L43.2132 5.85293C43.002 4.58601 41.9661 3.58962 40.2372 3.58962C38.2445 3.58962 36.9775 5.02811 36.9775 7.23864V7.25183C36.9775 9.50855 38.2511 10.9536 40.2438 10.9536ZM46.6328 10.9536C47.5896 10.9536 48.3352 10.5379 48.7839 9.77909H48.8895V10.8283H50.0377V5.95851C50.0377 4.48043 49.0677 3.58962 47.3322 3.58962C45.8146 3.58962 44.7324 4.34186 44.5476 5.45702L44.541 5.49661H45.6892L45.6958 5.47681C45.8806 4.92253 46.4414 4.6058 47.2927 4.6058C48.355 4.6058 48.8895 5.0809 48.8895 5.95851V6.60517L46.8505 6.73054C45.1943 6.82952 44.2573 7.56197 44.2573 8.82889V8.84209C44.2573 10.1354 45.2801 10.9536 46.6328 10.9536ZM45.4319 8.8157V8.8025C45.4319 8.09645 45.907 7.71373 46.9891 7.64775L48.8895 7.52897V8.17563C48.8895 9.19181 48.0383 9.95725 46.8703 9.95725C46.0455 9.95725 45.4319 9.53494 45.4319 8.8157ZM54.447 10.8811C54.6714 10.8811 54.8891 10.8547 55.1135 10.8151V9.83848C54.9023 9.85827 54.7902 9.86487 54.5856 9.86487C53.8466 9.86487 53.5562 9.52834 53.5562 8.69032V4.66519H55.1135V3.71499H53.5562V1.87399H52.3685V3.71499H51.2467V4.66519H52.3685V8.98066C52.3685 10.34 52.9822 10.8811 54.447 10.8811ZM59.4107 10.9536C61.0867 10.9536 62.1029 10.0034 62.3471 9.04005L62.3603 8.98726H61.2121L61.1857 9.04665C60.9944 9.47555 60.4005 9.93086 59.4371 9.93086C58.1702 9.93086 57.3585 9.07304 57.3256 7.60156H62.4461V7.15285C62.4461 5.02811 61.2715 3.58962 59.3381 3.58962C57.4047 3.58962 56.151 5.0941 56.151 7.29142V7.29802C56.151 9.52834 57.3783 10.9536 59.4107 10.9536ZM59.3315 4.6124C60.3807 4.6124 61.1593 5.27886 61.2781 6.68435H57.3454C57.4707 5.33165 58.2758 4.6124 59.3315 4.6124ZM66.9412 13.3357C68.8812 13.3357 70.1085 12.3195 70.1085 10.7293V3.71499H68.9604V4.88954H68.8812C68.4457 4.08451 67.6671 3.58962 66.6641 3.58962C64.8033 3.58962 63.6551 5.03471 63.6551 7.02748V7.04068C63.6551 9.03345 64.7967 10.4587 66.6377 10.4587C67.6143 10.4587 68.4193 10.0166 68.868 9.23141H68.9736V10.6699C68.9736 11.7191 68.2147 12.3195 66.9412 12.3195C65.9184 12.3195 65.285 11.9368 65.1596 11.3957L65.153 11.3891H63.9653L63.9521 11.3957C64.1302 12.5637 65.2256 13.3357 66.9412 13.3357ZM66.8884 9.44256C65.5687 9.44256 64.8297 8.45277 64.8297 7.04068V7.02748C64.8297 5.61539 65.5687 4.6058 66.8884 4.6058C68.2015 4.6058 69 5.61539 69 7.02748V7.04068C69 8.45277 68.2081 9.44256 66.8884 9.44256ZM74.9534 10.9536C76.9792 10.9536 78.2329 9.55474 78.2329 7.27823V7.26503C78.2329 4.98192 76.9792 3.58962 74.9534 3.58962C72.9277 3.58962 71.6739 4.98192 71.6739 7.26503V7.27823C71.6739 9.55474 72.9277 10.9536 74.9534 10.9536ZM74.9534 9.93745C73.6073 9.93745 72.8485 8.95427 72.8485 7.27823V7.26503C72.8485 5.58239 73.6073 4.6058 74.9534 4.6058C76.2995 4.6058 77.0584 5.58239 77.0584 7.26503V7.27823C77.0584 8.95427 76.2995 9.93745 74.9534 9.93745ZM79.7983 10.8283H80.9465V6.42041C80.9465 5.37784 81.7251 4.68499 82.8205 4.68499C83.0712 4.68499 83.289 4.71138 83.5265 4.75097V3.63581C83.4143 3.61602 83.1702 3.58962 82.9524 3.58962C81.989 3.58962 81.3226 4.02513 81.052 4.77077H80.9465V3.71499H79.7983V10.8283ZM85.336 2.34249C85.7715 2.34249 86.1279 1.98617 86.1279 1.55066C86.1279 1.11515 85.7715 0.758831 85.336 0.758831C84.9005 0.758831 84.5442 1.11515 84.5442 1.55066C84.5442 1.98617 84.9005 2.34249 85.336 2.34249ZM84.7554 10.8283H85.9035V3.71499H84.7554V10.8283ZM90.755 10.9536C92.4311 10.9536 93.4472 10.0034 93.6914 9.04005L93.7046 8.98726H92.5564L92.53 9.04665C92.3387 9.47555 91.7448 9.93086 90.7814 9.93086C89.5145 9.93086 88.7029 9.07304 88.6699 7.60156H93.7904V7.15285C93.7904 5.02811 92.6158 3.58962 90.6824 3.58962C88.749 3.58962 87.4953 5.0941 87.4953 7.29142V7.29802C87.4953 9.52834 88.7227 10.9536 90.755 10.9536ZM90.6758 4.6124C91.725 4.6124 92.5036 5.27886 92.6224 6.68435H88.6897C88.815 5.33165 89.6201 4.6124 90.6758 4.6124ZM97.7972 10.9536C99.4139 10.9536 100.648 10.076 100.648 8.8091V8.7959C100.648 7.77972 100.001 7.19904 98.6616 6.87571L97.5663 6.61177C96.7283 6.40721 96.3719 6.10368 96.3719 5.62198V5.60879C96.3719 4.98192 96.9922 4.54642 97.8368 4.54642C98.6946 4.54642 99.2489 4.93573 99.4007 5.49661H100.529C100.371 4.33526 99.3347 3.58962 97.8434 3.58962C96.3323 3.58962 95.1974 4.48043 95.1974 5.66158V5.66817C95.1974 6.69095 95.7979 7.27163 97.1308 7.58836L98.2327 7.8523C99.1104 8.06346 99.4733 8.39999 99.4733 8.88168V8.89488C99.4733 9.54154 98.7936 9.99684 97.8368 9.99684C96.9262 9.99684 96.3587 9.60753 96.1674 9.01365H94.9928C95.1248 10.1882 96.2136 10.9536 97.7972 10.9536Z" fill="white"/>
</svg>
