<svg width="95" height="15" viewBox="0 0 95 15" fill="none" xmlns="http://www.w3.org/2000/svg">
<path d="M7.31777 10.1354L8.19538 9.24461C7.32437 9.17862 6.75689 8.91468 6.32798 8.48577C5.17323 7.33102 5.17983 5.69457 6.32138 4.55302L8.47252 2.40188C9.62727 1.25373 11.2505 1.24713 12.4053 2.40188C13.56 3.55663 13.5468 5.18648 12.4053 6.32804L11.112 7.62136C11.2967 8.04367 11.3363 8.53196 11.2703 8.96087L13.2103 7.02749C14.7874 5.44383 14.8006 3.20691 13.2037 1.60345C11.6002 -3.83705e-07 9.35673 0.0131968 7.77307 1.59686L5.52295 3.85357C3.9393 5.43723 3.9261 7.68075 5.52955 9.2776C5.94526 9.69331 6.47315 9.99025 7.31777 10.1354ZM7.48273 4.69819L6.60512 5.589C7.47613 5.66158 8.04361 5.91892 8.47252 6.34783C9.62727 7.50258 9.62067 9.13903 8.47912 10.2806L6.32138 12.4317C5.17323 13.5799 3.54998 13.5865 2.39523 12.4383C1.24048 11.277 1.24708 9.65372 2.39523 8.50557L3.68855 7.21225C3.50379 6.79654 3.4576 6.30164 3.53018 5.87273L1.5902 7.80612C0.0131417 9.38978 -5.54901e-05 11.6333 1.5968 13.2302C3.20026 14.8336 5.44377 14.8204 7.02083 13.2433L9.27755 10.98C10.8612 9.39638 10.8744 7.15286 9.27095 5.556C8.85524 5.14029 8.32735 4.84336 7.48273 4.69819ZM89.795 11.4499C89.9934 11.4499 90.1627 11.3724 90.3176 11.2127L93.9565 7.49159C94.0823 7.36577 94.1452 7.21577 94.1452 7.03672C94.1452 6.6738 93.8549 6.37863 93.4919 6.37863C93.3177 6.37863 93.1484 6.45605 93.0177 6.5867L89.7998 9.89655L86.5722 6.5867C86.4416 6.45605 86.2771 6.37863 86.0932 6.37863C85.7351 6.37863 85.4447 6.6738 85.4447 7.03672C85.4447 7.21577 85.5125 7.36577 85.6335 7.49159L89.2724 11.2176C89.4321 11.3724 89.5966 11.4499 89.795 11.4499Z" fill="#EBEBF5" fill-opacity="0.6"/>
<path d="M19.9273 12.2338H21.1744L22.1312 9.50855H25.9188L26.8756 12.2338H28.1227L24.6123 2.71202H23.4377L19.9273 12.2338ZM23.9722 4.24948H24.0778L25.5691 8.49897H22.4809L23.9722 4.24948ZM29.4967 12.2338H30.6449V2.29631H29.4967V12.2338ZM32.6986 12.2338H33.8467V2.29631H32.6986V12.2338ZM43.3979 12.4581C45.4237 12.4581 46.9282 11.3298 47.2449 9.58773V9.57454H46.044L46.0308 9.58773C45.7338 10.6831 44.7242 11.3628 43.3979 11.3628C41.5635 11.3628 40.4154 9.86487 40.4154 7.48279V7.46959C40.4154 5.0875 41.5635 3.58303 43.3913 3.58303C44.7045 3.58303 45.7206 4.35506 46.0374 5.5758L46.044 5.589H47.2383L47.2449 5.5758C46.9612 3.74799 45.3973 2.48766 43.3913 2.48766C40.8047 2.48766 39.1946 4.40125 39.1946 7.46959V7.48279C39.1946 10.5445 40.8113 12.4581 43.3979 12.4581ZM48.9423 12.2338H50.0904V8.02387C50.0904 6.77674 50.8097 6.0113 51.9446 6.0113C53.0796 6.0113 53.6075 6.62497 53.6075 7.9051V12.2338H54.7556V7.62796C54.7556 5.93872 53.8648 4.99512 52.268 4.99512C51.2188 4.99512 50.5523 5.43723 50.196 6.18947H50.0904V2.29631H48.9423V12.2338ZM58.5711 12.3591C59.5279 12.3591 60.2736 11.9434 60.7223 11.1846H60.8278V12.2338H61.976V7.36401C61.976 5.88593 61.006 4.99512 59.2706 4.99512C57.7529 4.99512 56.6707 5.74736 56.486 6.86252L56.4794 6.90211H57.6275L57.6341 6.88232C57.8189 6.32804 58.3798 6.0113 59.231 6.0113C60.2934 6.0113 60.8278 6.4864 60.8278 7.36401V8.01067L58.7889 8.13605C57.1326 8.23503 56.1956 8.96747 56.1956 10.2344V10.2476C56.1956 11.5409 57.2184 12.3591 58.5711 12.3591ZM57.3702 10.2212V10.208C57.3702 9.50195 57.8453 9.11924 58.9275 9.05325L60.8278 8.93448V9.58114C60.8278 10.5973 59.9766 11.3628 58.8087 11.3628C57.9839 11.3628 57.3702 10.9404 57.3702 10.2212ZM64.4652 3.74799C64.9007 3.74799 65.257 3.39167 65.257 2.95616C65.257 2.52066 64.9007 2.16433 64.4652 2.16433C64.0297 2.16433 63.6734 2.52066 63.6734 2.95616C63.6734 3.39167 64.0297 3.74799 64.4652 3.74799ZM63.8845 12.2338H65.0327V5.1205H63.8845V12.2338ZM66.9808 12.2338H68.1289V8.02387C68.1289 6.77674 68.8482 6.0113 69.9831 6.0113C71.1181 6.0113 71.646 6.62497 71.646 7.9051V12.2338H72.7941V7.62796C72.7941 5.93872 71.9033 4.99512 70.3065 4.99512C69.2573 4.99512 68.5908 5.43723 68.2345 6.18947H68.1289V5.1205H66.9808V12.2338ZM77.0979 12.3591C78.7146 12.3591 79.9485 11.4815 79.9485 10.2146V10.2014C79.9485 9.18522 79.3019 8.60455 77.9624 8.28122L76.867 8.01727C76.029 7.81272 75.6726 7.50918 75.6726 7.02749V7.01429C75.6726 6.38742 76.2929 5.95192 77.1375 5.95192C77.9953 5.95192 78.5496 6.34123 78.7014 6.90211H79.8297C79.6714 5.74076 78.6354 4.99512 77.1441 4.99512C75.6331 4.99512 74.4981 5.88593 74.4981 7.06708V7.07368C74.4981 8.09646 75.0986 8.67713 76.4315 8.99386L77.5334 9.25781C78.4111 9.46896 78.774 9.80549 78.774 10.2872V10.3004C78.774 10.947 78.0943 11.4023 77.1375 11.4023C76.2269 11.4023 75.6594 11.013 75.4681 10.4192H74.2935C74.4255 11.5937 75.5143 12.3591 77.0979 12.3591Z" fill="white"/>
</svg>
