<svg width="25" height="22" viewBox="0 0 25 22" fill="none" xmlns="http://www.w3.org/2000/svg">
<path d="M5.7003 21.5333H18.8042C20.4301 21.5333 21.3882 20.5752 21.3882 19.0268V10.3553L22.2882 11.1005C22.5786 11.3522 22.927 11.5264 23.2754 11.5264C24.0206 11.5264 24.5432 11.0618 24.5432 10.3457C24.5432 9.95855 24.369 9.59079 24.0399 9.31981L21.3882 7.09389V2.78722C21.3882 2.33235 21.0979 2.04202 20.6527 2.04202H18.8719C18.4171 2.04202 18.1171 2.33235 18.1171 2.78722V4.33568L13.9749 0.861311C12.9491 -2.33501e-05 11.6135 -2.33501e-05 10.5876 0.861311L0.503258 9.32949C0.174209 9.60047 6.17094e-06 9.97791 6.17094e-06 10.336C6.17094e-06 11.0134 0.49358 11.5264 1.26781 11.5264C1.6259 11.5264 1.9743 11.3522 2.26464 11.1005L3.11629 10.3941V19.0268C3.11629 20.5752 4.07441 21.5333 5.7003 21.5333ZM15.0395 12.92C15.0395 12.4555 14.7395 12.1554 14.2749 12.1554H10.2683C9.80373 12.1554 9.49404 12.4555 9.49404 12.92V19.0364H6.51324C5.93257 19.0364 5.6132 18.7074 5.6132 18.1267V8.29395L11.749 3.15498C12.0877 2.85496 12.4652 2.85496 12.8232 3.15498L18.8913 8.25524V18.1267C18.8913 18.7074 18.5719 19.0364 18.0009 19.0364H15.0395V12.92Z" fill="white"/>
</svg>
