<svg width="18" height="18" viewBox="0 0 18 18" fill="none" xmlns="http://www.w3.org/2000/svg">
<path d="M8.9741 17.9481C13.8834 17.9481 17.9482 13.8746 17.9482 8.97407C17.9482 4.06473 13.8746 3.16836e-06 8.9653 3.16836e-06C4.06476 3.16836e-06 3.16417e-05 4.06473 3.16417e-05 8.97407C3.16417e-05 13.8746 4.07355 17.9481 8.9741 17.9481ZM8.9741 16.4525C4.82139 16.4525 1.50451 13.1268 1.50451 8.97407C1.50451 4.82136 4.81259 1.49568 8.9653 1.49568C13.118 1.49568 16.4437 4.82136 16.4525 8.97407C16.4613 13.1268 13.1268 16.4525 8.9741 16.4525ZM4.86538 10.2498C5.56923 10.2498 6.14111 9.67792 6.14111 8.96527C6.14111 8.26142 5.56043 7.68955 4.86538 7.68955C4.15274 7.68955 3.58086 8.26142 3.58086 8.96527C3.58086 9.67792 4.15274 10.2498 4.86538 10.2498ZM8.9653 10.2498C9.66915 10.2498 10.2498 9.67792 10.2498 8.96527C10.2498 8.26142 9.66915 7.68955 8.9653 7.68955C8.26145 7.68955 7.68078 8.26142 7.68078 8.96527C7.68078 9.67792 8.26145 10.2498 8.9653 10.2498ZM13.074 10.2498C13.7779 10.2498 14.3497 9.67792 14.3497 8.96527C14.3497 8.26142 13.7779 7.68955 13.074 7.68955C12.3614 7.68955 11.7895 8.26142 11.7895 8.96527C11.7895 9.67792 12.3614 10.2498 13.074 10.2498Z" fill="#EBEBF5" fill-opacity="0.6"/>
</svg>
