<svg width="18" height="19" viewBox="0 0 18 19" fill="none" xmlns="http://www.w3.org/2000/svg">
<path d="M8.60369 9.27144C11.0038 9.27144 12.9394 7.18101 12.9394 4.58733C12.9394 2.05172 10.9941 -3.7998e-07 8.60369 -3.7998e-07C6.22292 -3.7998e-07 4.26798 2.0614 4.27766 4.59701C4.28734 7.18101 6.20357 9.27144 8.60369 9.27144ZM8.60369 7.21972C7.39395 7.21972 6.38745 6.12612 6.37777 4.58733C6.36809 3.11629 7.40363 2.04204 8.60369 2.04204C9.82311 2.04204 10.8296 3.10661 10.8296 4.58733C10.8296 6.11644 9.82311 7.21972 8.60369 7.21972ZM2.65177 18.3396H14.5556C16.3267 18.3396 17.2074 17.7396 17.2074 16.4815C17.2074 13.6362 13.6943 10.2779 8.60369 10.2779C3.50343 10.2779 2.23834e-05 13.6362 2.23834e-05 16.4815C2.23834e-05 17.7396 0.880713 18.3396 2.65177 18.3396ZM2.57435 16.2976C2.39047 16.2976 2.3324 16.2202 2.3324 16.075C2.3324 14.7782 4.61639 12.32 8.60369 12.32C12.591 12.32 14.875 14.7782 14.875 16.075C14.875 16.2202 14.8169 16.2976 14.6234 16.2976H2.57435Z" fill="white"/>
</svg>
