<svg width="80" height="15" viewBox="0 0 80 15" fill="none" xmlns="http://www.w3.org/2000/svg">
<path d="M4.78614 10.0136C4.78614 10.4772 5.08527 10.7689 5.55641 10.7689H7.11192C7.58306 10.7689 7.88219 10.4772 7.88219 10.0136V0.889931C7.88219 0.418793 7.58306 0.127136 7.11192 0.127136H5.55641C5.08527 0.127136 4.78614 0.418793 4.78614 0.889931V10.0136ZM8.72725 10.0136C8.72725 10.4772 9.02638 10.7689 9.49752 10.7689H11.053C11.5242 10.7689 11.8308 10.4772 11.8308 10.0136V2.60996C11.8308 2.13882 11.5242 1.84717 11.053 1.84717H9.49752C9.02638 1.84717 8.72725 2.13882 8.72725 2.60996V10.0136ZM0.837548 10.0136C0.837548 10.4772 1.14416 10.7689 1.6153 10.7689H3.17081C3.63447 10.7689 3.94108 10.4772 3.94108 10.0136V4.1206C3.94108 3.64946 3.63447 3.3578 3.17081 3.3578H1.6153C1.14416 3.3578 0.837548 3.64946 0.837548 4.1206V10.0136ZM12.6684 10.0136C12.6684 10.4772 12.975 10.7689 13.4461 10.7689H15.0016C15.4653 10.7689 15.7719 10.4772 15.7719 10.0136V5.58636C15.7719 5.1227 15.4653 4.82356 15.0016 4.82356H13.4461C12.975 4.82356 12.6684 5.1227 12.6684 5.58636V10.0136ZM-3.13846e-05 12.7357C-3.13846e-05 13.2143 0.373888 13.5658 0.845027 13.5658H15.7719C16.243 13.5658 16.6169 13.2143 16.6169 12.7357C16.6169 12.2496 16.243 11.8981 15.7719 11.8981H0.845027C0.373888 11.8981 -3.13846e-05 12.2496 -3.13846e-05 12.7357Z" fill="#EBEBF5" fill-opacity="0.6"/>
<path d="M23.2031 11.7411H25.1326V7.68031H27.2714L29.3878 11.7411H31.5939L29.2382 7.38865C30.517 6.92499 31.2723 5.74341 31.2723 4.31503V4.30008C31.2723 2.24352 29.8813 0.949758 27.563 0.949758H23.2031V11.7411ZM25.1326 6.19959V2.51274H27.3237C28.5502 2.51274 29.2905 3.21571 29.2905 4.34495V4.3599C29.2905 5.51905 28.5801 6.19959 27.3611 6.19959H25.1326ZM35.2497 11.8757C36.3266 11.8757 37.1941 11.412 37.6428 10.6193H37.7699V11.7411H39.6096V6.15472C39.6096 4.42721 38.428 3.41015 36.3266 3.41015C34.3822 3.41015 33.066 4.32251 32.8865 5.69854L32.879 5.76584H34.6365L34.6439 5.73593C34.8309 5.19748 35.3843 4.89087 36.2368 4.89087C37.2389 4.89087 37.7699 5.33957 37.7699 6.15472V6.85769L35.6685 6.98482C33.6792 7.10447 32.5649 7.95701 32.5649 9.41529V9.43025C32.5649 10.9185 33.6942 11.8757 35.2497 11.8757ZM34.4046 9.34051V9.32555C34.4046 8.6525 34.8907 8.2711 35.9302 8.2038L37.7699 8.08414V8.74224C37.7699 9.71443 36.9398 10.4473 35.818 10.4473C34.9954 10.4473 34.4046 10.036 34.4046 9.34051ZM41.478 11.7411H43.3402V6.97734C43.3402 5.75088 44.0282 4.97313 45.135 4.97313C46.2642 4.97313 46.7802 5.61627 46.7802 6.8876V11.7411H48.6423V6.45385C48.6423 4.50947 47.6477 3.41015 45.823 3.41015C44.6414 3.41015 43.8562 3.94111 43.4673 4.81609H43.3402V3.56719H41.478V11.7411ZM50.5482 11.7411H52.4103V8.86937L53.0609 8.2038L55.6858 11.7411H57.9294L54.4145 7.02221L57.705 3.56719H55.5512L52.5374 6.91751H52.4103V0.403836H50.5482V11.7411ZM59.9474 2.19865C60.5531 2.19865 61.0542 1.71255 61.0542 1.09933C61.0542 0.493577 60.5531 2.94484e-06 59.9474 2.94484e-06C59.3342 2.94484e-06 58.8331 0.493577 58.8331 1.09933C58.8331 1.71255 59.3342 2.19865 59.9474 2.19865ZM59.0126 11.7411H60.8747V3.56719H59.0126V11.7411ZM62.7955 11.7411H64.6576V6.97734C64.6576 5.75088 65.3457 4.97313 66.4525 4.97313C67.5817 4.97313 68.0977 5.61627 68.0977 6.8876V11.7411H69.9598V6.45385C69.9598 4.50947 68.9652 3.41015 67.1405 3.41015C65.9589 3.41015 65.1736 3.94111 64.7848 4.81609H64.6576V3.56719H62.7955V11.7411ZM75.3057 14.6128C77.6913 14.6128 79.202 13.4237 79.202 11.5392V3.56719H77.3399V4.9133H77.2426C76.779 3.98598 75.8965 3.43258 74.7673 3.43258C72.6584 3.43258 71.3721 5.06287 71.3721 7.42604V7.441C71.3721 9.7593 72.6584 11.3597 74.7299 11.3597C75.8591 11.3597 76.7491 10.8811 77.2202 10.0061H77.3473V11.5691C77.3473 12.616 76.607 13.2068 75.3356 13.2068C74.2962 13.2068 73.6754 12.8404 73.5483 12.3169L73.5408 12.2945H71.6787L71.6712 12.3169C71.8582 13.6929 73.152 14.6128 75.3057 14.6128ZM75.3057 9.87895C74.012 9.87895 73.2791 8.88433 73.2791 7.441V7.42604C73.2791 5.98271 74.012 4.98061 75.3057 4.98061C76.592 4.98061 77.3772 5.98271 77.3772 7.42604V7.441C77.3772 8.88433 76.5995 9.87895 75.3057 9.87895Z" fill="white"/>
</svg>
