<svg width="20" height="20" viewBox="0 0 20 20" fill="none" xmlns="http://www.w3.org/2000/svg">
<path d="M-2.40915e-05 8.15846C-2.40915e-05 12.6587 3.64855 16.3073 8.14878 16.3073C9.64886 16.3073 11.0328 15.8911 12.2135 15.175L16.104 19.0655C16.4815 19.4429 16.9847 19.6268 17.5073 19.6268C18.63 19.6268 19.4623 18.7751 19.4623 17.6719C19.4623 17.1492 19.2784 16.6654 18.9009 16.2782L15.0491 12.4167C15.8427 11.1973 16.3073 9.73596 16.3073 8.15846C16.3073 3.64856 12.6587 -1.79857e-05 8.14878 -1.79857e-05C3.64855 -1.79857e-05 -2.40915e-05 3.64856 -2.40915e-05 8.15846ZM2.75818 8.15846C2.75818 5.17767 5.17766 2.76787 8.14878 2.76787C11.1296 2.76787 13.5491 5.17767 13.5491 8.15846C13.5491 11.1393 11.1296 13.5491 8.14878 13.5491C5.17766 13.5491 2.75818 11.1393 2.75818 8.15846Z" fill="white"/>
</svg>
