<svg width="23" height="18" viewBox="0 0 23 18" fill="none" xmlns="http://www.w3.org/2000/svg">
<path d="M18.3784 17.8848H21.3688C22.385 17.8848 22.8979 17.3718 22.8979 16.2976V1.59684C22.8979 0.522588 22.385 -1.93696e-05 21.3688 -1.93696e-05H18.3784C17.3525 -1.93696e-05 16.8396 0.522588 16.8396 1.59684V16.2976C16.8396 17.3718 17.3525 17.8848 18.3784 17.8848ZM9.95857 17.8848H12.949C13.9652 17.8848 14.4782 17.3718 14.4782 16.2976V4.3744C14.4782 3.30015 13.9652 2.78722 12.949 2.78722H9.95857C8.93271 2.78722 8.41978 3.30015 8.41978 4.3744V16.2976C8.41978 17.3718 8.93271 17.8848 9.95857 17.8848ZM1.53879 17.8848H4.52926C5.54544 17.8848 6.05837 17.3718 6.05837 16.2976V7.08421C6.05837 6.01964 5.54544 5.49704 4.52926 5.49704H1.53879C0.512927 5.49704 -2.41213e-06 6.01964 -2.41213e-06 7.08421V16.2976C-2.41213e-06 17.3718 0.512927 17.8848 1.53879 17.8848Z" fill="white"/>
</svg>
